<svg id="Layer_1" data-name="Layer 1" xmlns="http://www.w3.org/2000/svg" viewBox="0 0 450.8 677"><defs><style>.cls-1{fill:#29047a;}.cls-2{fill:#02faa8;}.cls-3{fill:#06d6f2;}</style></defs><title>soco-logo</title><path class="cls-1" d="M225.1,226.2,420.4,112.3A225.3,225.3,0,0,0,225.4,0C100.9,0,0,100.9,0,225.4S100.9,450.8,225.4,450.8a225.3,225.3,0,0,0,195-112.3Z"/><path class="cls-2" d="M225.4,226.2a225.3,225.3,0,0,0-195,112.3L225.7,450.8,30.4,564.7A225.6,225.6,0,0,0,225.4,677c124.5,0,225.4-100.9,225.4-225.4S349.9,226.2,225.4,226.2Z"/><path class="cls-3" d="M225.4,450.8a225.3,225.3,0,0,0,195-112.3,225.5,225.5,0,0,0-390,0A225.3,225.3,0,0,0,225.4,450.8Z"/></svg>